<svg xmlns="http://www.w3.org/2000/svg" viewBox="0 0 138.65 20.3"><defs><style>.cls-1{fill:#21ce99;}.cls-2{fill:#fff;}</style></defs><title>daguard-beta-logo</title><g id="Layer_2" data-name="Layer 2"><g id="Layer_1-2" data-name="Layer 1"><path class="cls-1" d="M12.48,18.22a7.27,7.27,0,0,1-5.27,1.91H0V.17H7.21a7.31,7.31,0,0,1,5.27,1.9c2.24,2.25,2,5,2,8S14.72,16,12.48,18.22ZM9.76,4.88A3.5,3.5,0,0,0,6.84,3.65H3.9v13H6.84a3.5,3.5,0,0,0,2.92-1.24c.73-.9.84-2.33.84-5.35S10.49,5.78,9.76,4.88Z"/><path class="cls-1" d="M24.85,20.13V18.87a4.46,4.46,0,0,1-3.59,1.4A5,5,0,0,1,17.53,19a4.65,4.65,0,0,1-1.21-3.28c0-2.33,1.6-4.23,5-4.23h3.45v-.73c0-1.6-.78-2.3-2.72-2.3a3.12,3.12,0,0,0-2.8,1.21L16.91,7.37c1.43-1.57,2.83-2,5.27-2,4.1,0,6.23,1.73,6.23,5.15v9.62ZM24.76,14H21.87c-1.31,0-2,.62-2,1.66s.67,1.68,2.1,1.68a2.88,2.88,0,0,0,2.3-.7,2.41,2.41,0,0,0,.53-1.85Z"/><path class="cls-1" d="M43.94,18a7.55,7.55,0,0,1-10.68.17c-2-2-1.94-4.18-1.94-8s0-6.06,1.94-8A7.14,7.14,0,0,1,38.5,0a7.52,7.52,0,0,1,6,2.64l-2.05,2c-1.26-1.26-2.18-2-4-2a4.09,4.09,0,0,0-3,1.23c-1,1.07-1.18,2.19-1.18,6.2s.2,5.16,1.18,6.22a4,4,0,0,0,3,1.21,4.11,4.11,0,0,0,3.2-1.4,4.61,4.61,0,0,0,1-3.17V11.92H38.5V9.34h7.21v3C45.71,14.92,45.26,16.6,43.94,18Z"/><path class="cls-1" d="M57.29,20.13V18.7a5.06,5.06,0,0,1-3.78,1.6A5,5,0,0,1,50,19a5.24,5.24,0,0,1-1.43-4V5.92h2.86v8.66c0,2.22,1.26,3.17,2.86,3.17a2.83,2.83,0,0,0,2.94-3.17V5.92h2.86V20.13Z"/><path class="cls-1" d="M71.31,20.13V18.84a4.66,4.66,0,0,1-3.78,1.46A5,5,0,0,1,63.71,19,4.36,4.36,0,0,1,62.59,16c0-2.38,1.66-4.09,4.91-4.09h3.76v-1c0-1.79-.9-2.66-3.12-2.66A3.33,3.33,0,0,0,65,9.56L63.15,7.79c1.35-1.57,2.75-2,5.11-2,3.89,0,5.86,1.65,5.86,4.88v9.5Zm0-6.28H67.92c-1.68,0-2.55.76-2.55,2.05s.81,2,2.61,2a3.4,3.4,0,0,0,2.66-.82,2.85,2.85,0,0,0,.62-2.1Z"/><path class="cls-1" d="M85.36,9.25a2.64,2.64,0,0,0-2.13-.95,2.92,2.92,0,0,0-2.83,3.2v8.63H77.54V5.92h2.8V7.46a4.73,4.73,0,0,1,3.79-1.71,4.4,4.4,0,0,1,3.39,1.34Z"/><path class="cls-1" d="M96.13,20.13V18.62a4.36,4.36,0,0,1-3.76,1.68A4.91,4.91,0,0,1,88.9,19c-1.43-1.43-1.6-3.87-1.6-6s.17-4.57,1.6-6a4.82,4.82,0,0,1,3.45-1.26,4.36,4.36,0,0,1,3.72,1.6V.17h2.86v20Zm-3-11.83c-2.58,0-3,2.19-3,4.71s.39,4.74,3,4.74,2.94-2.22,2.94-4.74S95.71,8.3,93.13,8.3Z"/><path class="cls-1" d="M107.94,1.27h28.15a2.85,2.85,0,0,1,1.54.27,1.81,1.81,0,0,1,.75.75,2.85,2.85,0,0,1,.27,1.54V17.74a2.85,2.85,0,0,1-.27,1.54,1.81,1.81,0,0,1-.75.75,2.85,2.85,0,0,1-1.54.27H107.94A2.82,2.82,0,0,1,106.4,20a1.89,1.89,0,0,1-.76-.75,3,3,0,0,1-.26-1.54V13.82l-2.75-2.09a1.18,1.18,0,0,1,0-1.89l2.75-2.09V3.83a3,3,0,0,1,.26-1.54,1.89,1.89,0,0,1,.76-.75A2.82,2.82,0,0,1,107.94,1.27Z"/><path class="cls-2" d="M116,9.59a2.42,2.42,0,0,0,.23-.59,3.75,3.75,0,0,0,.07-.81V7.75a3.73,3.73,0,0,0-.16-1.11,2.25,2.25,0,0,0-.52-1,2.63,2.63,0,0,0-.94-.67,3.56,3.56,0,0,0-1.39-.25h-2.48V16.61h2.31a3.12,3.12,0,0,0,2.42-.83,3.44,3.44,0,0,0,.76-2.4v-.67a3.24,3.24,0,0,0-.28-1.49,1.84,1.84,0,0,0-.88-.84A2.29,2.29,0,0,0,116,9.59Zm-1.33,4.12a1.46,1.46,0,0,1-.18.63,1.05,1.05,0,0,1-.44.42,1.77,1.77,0,0,1-.81.15h-.73v-3.8h.75a2.07,2.07,0,0,1,.74.12,1,1,0,0,1,.46.34,1.48,1.48,0,0,1,.2.56,5.83,5.83,0,0,1,0,.79C114.69,13.2,114.67,13.47,114.65,13.71Zm-.26-4.52a1.27,1.27,0,0,1-1.14.43h-.76V6.36h.7a1.44,1.44,0,0,1,1.17.4,1.83,1.83,0,0,1,.33,1.2A2.11,2.11,0,0,1,114.39,9.19Z"/><path class="cls-2" d="M123,13V10.7a2.71,2.71,0,0,0-.67-1.88,2.38,2.38,0,0,0-.8-.55,2.78,2.78,0,0,0-1.06-.19,2.66,2.66,0,0,0-1.36.32,2.31,2.31,0,0,0-1.1,1.65A6.94,6.94,0,0,0,118,11v2.78a6.67,6.67,0,0,0,.07.94,2.4,2.4,0,0,0,.25.77,2.32,2.32,0,0,0,.85.88,2.56,2.56,0,0,0,1.36.33,2.69,2.69,0,0,0,1.05-.19,2.65,2.65,0,0,0,.8-.55,2.47,2.47,0,0,0,.68-1.8h-1.7a1.33,1.33,0,0,1-.19.56.66.66,0,0,1-.64.29.85.85,0,0,1-.61-.21.84.84,0,0,1-.22-.62V13Zm-3.36-2.3a1,1,0,0,1,.22-.72.9.9,0,0,1,1.22,0,1,1,0,0,1,.22.72v1h-1.66Z"/><path class="cls-2" d="M124.6,8.17h-.85V9.5h.85v5.13a2.48,2.48,0,0,0,.11.69,1.72,1.72,0,0,0,.34.64,1.65,1.65,0,0,0,.62.46,2.2,2.2,0,0,0,1,.19h.69V15l-.47,0a.64.64,0,0,1-.32-.1.41.41,0,0,1-.19-.25,1.38,1.38,0,0,1-.06-.46V9.5h1V8.17h-1V5.61h-1.7Z"/><path class="cls-2" d="M133,9.57a2.42,2.42,0,0,0-.53-.83,2.25,2.25,0,0,0-.81-.5,3,3,0,0,0-1-.16,2.52,2.52,0,0,0-1.05.19,2.4,2.4,0,0,0-.8.52,2.71,2.71,0,0,0-.76,1.83h1.65a1,1,0,0,1,.35-.64,1,1,0,0,1,.61-.21.77.77,0,0,1,.67.28,1.42,1.42,0,0,1,.17.72v.88l-.24,0a.59.59,0,0,1-.2,0h-.37a4.34,4.34,0,0,0-1.31.17,1.92,1.92,0,0,0-.82.53,2,2,0,0,0-.43.9,5.86,5.86,0,0,0-.12,1.26,3,3,0,0,0,.18,1.14,1.61,1.61,0,0,0,1.05,1,2.06,2.06,0,0,0,.6.08,1.64,1.64,0,0,0,1-.24,3.14,3.14,0,0,0,.67-.72h0v.87h1.71V10.73A3,3,0,0,0,133,9.57Zm-1.5,4.56a1.21,1.21,0,0,1-.23.8.84.84,0,0,1-.68.28.75.75,0,0,1-.64-.3,1.21,1.21,0,0,1-.24-.78,1,1,0,0,1,.39-.94,1.7,1.7,0,0,1,.94-.26,2.91,2.91,0,0,1,.46.05Z"/></g></g></svg>