<svg xmlns="http://www.w3.org/2000/svg" viewBox="0 0 30 30"><defs><style>.cls-1{fill:#f5a623;}.cls-2{fill:#fff;}</style></defs><title>ic_btc</title><g id="Layer_2" data-name="Layer 2"><g id="Layer_1-2" data-name="Layer 1"><path class="cls-1" d="M0,15A15,15,0,1,0,15,0,15,15,0,0,0,0,15Z"/><path class="cls-2" d="M18.8,14.57c2.9-.86,2.68-3.07,2.68-3.07-.11-2.7-3.21-3-3.21-3V6.16H15.8V8.3H14.25V6.16H11.84V8.3H8.09v1.88h.82a.76.76,0,0,1,.88.9v7.81a.71.71,0,0,1-.84.83H8.09v1.88h3.75v2.14h2.41V21.59H15.8v2.14h2.47V21.37c3.48-.58,3.71-3.11,3.71-3.11C22.32,14.93,18.8,14.57,18.8,14.57Zm-5.41-4.12,2.43,0S18,10.39,18,12.05c0,0,.13,1.42-2.08,1.6l-2.53.06Zm3.43,8.84s-.35.22-2.9.16c0,0-.58.08-.53-.58V15.64h2.39s2.54-.05,2.49,1.82A1.86,1.86,0,0,1,16.82,19.29Z"/></g></g></svg>