<svg xmlns="http://www.w3.org/2000/svg" viewBox="0 0 30 30"><defs><style>.cls-1{fill:#2775ca;}.cls-2{fill:#fff;}</style></defs><title>usdc</title><g id="Layer_2" data-name="Layer 2"><g id="Layer_1-2" data-name="Layer 1"><path class="cls-1" d="M15,30A15,15,0,1,0,0,15,15,15,0,0,0,15,30Z"/><path class="cls-2" d="M19.11,17.39c0-2.19-1.33-2.93-3.91-3.29-1.9-.27-2.27-.72-2.27-1.6s.65-1.45,1.89-1.45,1.77.4,2,1.3a.49.49,0,0,0,.45.35h1a.44.44,0,0,0,.43-.53,3.17,3.17,0,0,0-2.78-2.55V8.13a.47.47,0,0,0-.47-.47h-.94a.47.47,0,0,0-.47.47V9.58A3.21,3.21,0,0,0,11,12.67c0,2.05,1.24,2.85,3.86,3.2,1.78.29,2.29.67,2.29,1.68s-.86,1.69-2.07,1.69c-1.64,0-2.18-.72-2.38-1.64a.46.46,0,0,0-.45-.38H11.18a.44.44,0,0,0-.44.5,3.5,3.5,0,0,0,3.32,3v1.48a.47.47,0,0,0,.47.47h.94a.47.47,0,0,0,.47-.47V20.71A3.45,3.45,0,0,0,19.11,17.39Z"/><path class="cls-2" d="M11.79,24a9.37,9.37,0,0,1,0-17.61.67.67,0,0,0,.4-.59V4.88a.44.44,0,0,0-.62-.44,11.26,11.26,0,0,0,0,21.44.45.45,0,0,0,.62-.45v-.88A.69.69,0,0,0,11.79,24ZM18.43,4.44a.45.45,0,0,0-.62.45v.87a.67.67,0,0,0,.41.59,9.37,9.37,0,0,1,0,17.61.64.64,0,0,0-.41.59v.88a.45.45,0,0,0,.62.45,11.26,11.26,0,0,0,0-21.44Z"/></g></g></svg>