<svg xmlns="http://www.w3.org/2000/svg" viewBox="0 0 30 30"><defs><style>.cls-1{fill:#1ba27a;}.cls-2{fill:#fff;}</style></defs><title>ic_usdt</title><g id="Layer_2" data-name="Layer 2"><g id="Layer_1-2" data-name="Layer 1"><path class="cls-1" d="M0,15A15,15,0,1,0,15,0,15,15,0,0,0,0,15Z"/><path class="cls-2" d="M22,7.56H7.83V11h5.4v5h3.42V11H22Z"/><path class="cls-2" d="M24,15.25c0-1.12-4.05-2-9.06-2s-9.06.91-9.06,2,3.15,1.82,7.32,2v7.23h3.42V17.25C20.85,17.07,24,16.24,24,15.25ZM15,16.58c-4.45,0-8.07-.71-8.07-1.58s3.62-1.58,8.07-1.58S23,14.13,23,15,19.43,16.58,15,16.58Z"/></g></g></svg>