<svg xmlns="http://www.w3.org/2000/svg" viewBox="0 0 30 30"><defs><style>.cls-1{fill:#266ba6;}.cls-2{fill:#fff;}</style></defs><title>ic_xrp_1</title><g id="Layer_2" data-name="Layer 2"><g id="Layer_1-2" data-name="Layer 1"><circle class="cls-1" cx="15" cy="15" r="15"/><path class="cls-2" d="M18.24,16.65a6,6,0,0,0-.61,0,2.34,2.34,0,0,1-1-1.84,2.17,2.17,0,0,1,.66-1.41,4.69,4.69,0,0,0,.84.08,4,4,0,1,0-3-1.34,1.83,1.83,0,0,1-.66,1.26,3.89,3.89,0,0,1-2.07.24,4,4,0,1,0,.11,2.62,2.41,2.41,0,0,1,1.69.16A2.92,2.92,0,0,1,15,18.35a4,4,0,1,0,3.29-1.7Z"/></g></g></svg>