<?xml version="1.0" encoding="utf-8"?>
<!-- Generator: Adobe Illustrator 22.1.0, SVG Export Plug-In . SVG Version: 6.00 Build 0)  -->
<svg version="1.1" id="Layer_1" xmlns="http://www.w3.org/2000/svg" xmlns:xlink="http://www.w3.org/1999/xlink" x="0px" y="0px"
	 viewBox="0 0 30 30" style="enable-background:new 0 0 30 30;" xml:space="preserve">
<style type="text/css">
	.st0{fill:#5B7373;}
	.st1{fill:#FFFFFF;}
	.st2{fill:#FF8B00;}
	.st3{fill:#E6FFFF;}
</style>
<g>
	<path class="st0" d="M15,0C6.7,0,0,6.7,0,15s6.7,15,15,15s15-6.7,15-15S23.3,0,15,0"/>
	<path class="st1" d="M15,1c7.7,0,14,6.3,14,14s-6.3,14-14,14S1,22.7,1,15S7.3,1,15,1"/>
	<path class="st2" d="M13.6,16.9L12.2,16c0,0-3.1,2.4-1.9,5c0.1,0.3,0.4,0.5,0.7,0.5c0.9,0,2.8-0.3,4-3.6L13.6,16.9z"/>
	<path class="st0" d="M17.5,14.2c0,0,3.7,2.6,0.6,7.4c0,0,0,0-0.1,0c-0.3-1.7-1.3-3.2-2.8-4.1L17.5,14.2L17.5,14.2z"/>
	<path class="st0" d="M12.4,15.5l-4.9-1v-0.1c3.3-4.6,7.1-2.2,7.1-2.2L12.4,15.5z"/>
	<path class="st0" d="M21.8,11.6c1.6-3-0.4-6.2-0.4-6.2s-3.7-0.7-5.9,1.9c-1.7,2.2-3.2,4.6-4.4,7.1c-0.4,0.7-0.1,1.6,0.5,2l1.6,1
		l1.6,1c0.7,0.4,1.6,0.3,2.1-0.3C18.7,16.2,20.4,13.9,21.8,11.6"/>
	<path class="st3" d="M20.4,5.8c0.2,0,0.5,0,0.7,0c0.9,1.7,1,3.6,0.3,5.4c-1.4,2.4-3.1,4.6-4.9,6.6c-0.2,0.2-0.5,0.3-0.8,0.3
		c-0.2,0-0.4-0.1-0.6-0.2l-1.6-1L12,16c-0.4-0.3-0.6-0.8-0.3-1.3c1.2-2.5,2.7-4.8,4.4-7C17.1,6.5,18.7,5.8,20.4,5.8"/>
	<polygon class="st0" points="7.8,24.7 7.7,24.5 9.8,21.5 10,21.6 	"/>
	<polygon class="st0" points="9.1,24.4 8.9,24.3 10.1,22.6 10.3,22.7 	"/>
	<path class="st0" d="M19.8,7.4c-1-0.7-2.3-0.4-3,0.6c-0.7,1-0.4,2.3,0.6,3c1,0.7,2.3,0.4,3-0.6c0,0,0,0,0,0
		C21,9.5,20.8,8.1,19.8,7.4C19.8,7.5,19.8,7.5,19.8,7.4z M19.9,10.1c-0.5,0.7-1.5,0.9-2.2,0.4c-0.7-0.5-0.9-1.5-0.4-2.2
		c0.5-0.7,1.5-0.9,2.2-0.4C20.2,8.4,20.4,9.4,19.9,10.1C19.9,10.1,19.9,10.1,19.9,10.1z"/>
</g>
</svg>
